<svg width="239" height="45" viewBox="0 0 239 45" fill="none" xmlns="http://www.w3.org/2000/svg">
<path d="M8.2168 1.34375L22.1621 36.1484L36.1074 1.34375H43.4023V44H37.7773V27.3887L38.3047 9.45898L24.3008 44H19.9941L6.01953 9.54688L6.57617 27.3887V44H0.951172V1.34375H8.2168Z" fill="#E10856"/>
<path d="M78.534 44V1.34375H92.4793C97.1082 1.34375 100.585 2.30078 102.909 4.21484C105.253 6.12891 106.425 8.96094 106.425 12.7109C106.425 14.7031 105.858 16.4707 104.725 18.0137C103.593 19.5371 102.05 20.7188 100.096 21.5586C102.401 22.2031 104.218 23.4336 105.546 25.25C106.893 27.0469 107.567 29.1953 107.567 31.6953C107.567 35.5234 106.327 38.5312 103.846 40.7188C101.366 42.9062 97.8602 44 93.3289 44H78.534ZM84.159 24.0488V39.4004H93.4461C96.0633 39.4004 98.1238 38.7266 99.6277 37.3789C101.151 36.0117 101.913 34.1367 101.913 31.7539C101.913 26.6172 99.1199 24.0488 93.534 24.0488H84.159ZM84.159 19.5371H92.6551C95.116 19.5371 97.0789 18.9219 98.5437 17.6914C100.028 16.4609 100.77 14.791 100.77 12.6816C100.77 10.3379 100.087 8.63867 98.7195 7.58398C97.3523 6.50977 95.2723 5.97266 92.4793 5.97266H84.159V19.5371ZM173.929 24.0488C173.929 28.2285 173.226 31.8809 171.82 35.0059C170.414 38.1113 168.421 40.4844 165.843 42.125C163.265 43.7656 160.257 44.5859 156.82 44.5859C153.461 44.5859 150.482 43.7656 147.884 42.125C145.287 40.4648 143.265 38.1113 141.82 35.0645C140.394 31.998 139.662 28.4531 139.623 24.4297V21.3535C139.623 17.252 140.336 13.6289 141.761 10.4844C143.187 7.33984 145.199 4.9375 147.796 3.27734C150.414 1.59766 153.402 0.757812 156.761 0.757812C160.179 0.757812 163.187 1.58789 165.785 3.24805C168.402 4.88867 170.414 7.28125 171.82 10.4258C173.226 13.5508 173.929 17.1934 173.929 21.3535V24.0488ZM168.334 21.2949C168.334 16.2363 167.318 12.3594 165.287 9.66406C163.255 6.94922 160.414 5.5918 156.761 5.5918C153.207 5.5918 150.404 6.94922 148.353 9.66406C146.322 12.3594 145.277 16.1094 145.218 20.9141V24.0488C145.218 28.9512 146.244 32.8086 148.295 35.6211C150.365 38.4141 153.207 39.8105 156.82 39.8105C160.453 39.8105 163.265 38.4922 165.257 35.8555C167.25 33.1992 168.275 29.4004 168.334 24.459V21.2949ZM220.838 17.6914L231.063 1.34375H237.684L224.207 22.4961L238.006 44H231.327L220.838 27.3594L210.291 44H203.641L217.469 22.4961L203.963 1.34375H210.555L220.838 17.6914Z" fill="white"/>
</svg>
